<svg width="55" height="70" viewBox="0 0 55 70" fill="none" xmlns="http://www.w3.org/2000/svg">
<path d="M54.2649 13.23L41.765 0.729931C41.5322 0.496582 41.2551 0.312158 40.95 0.1875C40.6484 0.0643066 40.3258 0.000585937 40 0H7.49999C3.35786 0 0 3.35786 0 7.49999V62.5C0 66.6421 3.35786 70 7.49999 70H47.5C51.6422 70 55 66.6421 55 62.5V15C54.9965 14.3364 54.7325 13.7008 54.2649 13.23ZM42.4999 8.53505L46.465 12.5001H42.4999V8.53505ZM49.9999 62.5C49.9999 63.8808 48.8806 65.0001 47.4999 65.0001H7.49999C6.11923 65.0001 4.99995 63.8808 4.99995 62.5V7.49999C4.99995 6.11923 6.11923 4.99995 7.49999 4.99995H37.5V15C37.5 16.3808 38.6193 17.5 40 17.5H50.0001V62.5H49.9999Z" fill="#9655FF"/>
</svg>
