<svg width="33" height="29" viewBox="0 0 33 29" fill="none" xmlns="http://www.w3.org/2000/svg">
<path d="M28.934 5.62215H18.4894C18.0654 5.62215 17.6513 5.44806 17.3653 5.15216L14.1064 1.71913C13.323 0.938283 12.2512 0.530425 11.1657 0.536677H4.06595C1.82408 0.536612 0 2.3607 0 4.6025V24.3975C0 26.6394 1.82408 28.4635 4.06595 28.4635H28.9489H28.9527C31.1933 28.4535 33.0099 26.6207 32.9999 24.3851V9.68804C32.9999 7.44617 31.1758 5.62215 28.934 5.62215ZM30.5131 24.3901C30.5169 25.2605 29.8119 25.9729 28.9465 25.9767H4.06595C3.19558 25.9767 2.48685 25.2679 2.48685 24.3976V4.6025C2.48685 3.73213 3.19558 3.0234 4.06595 3.02211H11.1981C11.2117 3.02211 11.2254 3.02211 11.2391 3.02211C11.6544 3.02211 12.0573 3.1875 12.3283 3.45608L15.5698 6.87292C16.3308 7.65873 17.3952 8.10887 18.4894 8.10887H28.934C29.8044 8.10887 30.5131 8.8176 30.5131 9.68797V24.3901H30.5131Z" fill="#9655FF"/>
</svg>
