<svg width="18" height="18" viewBox="0 0 18 18" fill="none" xmlns="http://www.w3.org/2000/svg">
<path d="M16.918 10.6051C16.7977 10.7252 16.6594 10.7854 16.5031 10.7854C16.3468 10.7854 16.2085 10.7252 16.0882 10.6051L8.9999 3.51662L1.91132 10.6051C1.79116 10.7252 1.65275 10.7854 1.49671 10.7854C1.34016 10.7854 1.20181 10.7252 1.08166 10.6051L0.179918 9.70315C0.0597615 9.58299 6.14449e-05 9.44458 6.14449e-05 9.28854C6.14449e-05 9.13218 0.0601405 8.99383 0.179918 8.87368L8.58536 0.468679C8.70545 0.34827 8.84361 0.288445 8.9999 0.288445C9.1562 0.288445 9.29461 0.348459 9.41477 0.468679L17.8196 8.87362C17.94 8.99383 18 9.13199 18 9.28867C18 9.44458 17.9398 9.58293 17.8196 9.70315L16.918 10.6051Z" fill="#1D1D1D"/>
<path d="M8.58536 7.39479C8.70545 7.27438 8.84361 7.21436 8.9999 7.21436C9.1562 7.21436 9.29461 7.27457 9.41477 7.39479L17.8196 15.7997C17.94 15.9199 18 16.0582 18 16.2148C18 16.3709 17.9398 16.5092 17.8196 16.6294L16.918 17.5313C16.7977 17.6515 16.6594 17.7112 16.5031 17.7112C16.3468 17.7112 16.2085 17.6512 16.0882 17.5313L8.9999 10.4427L1.91132 17.5313C1.79116 17.6515 1.65275 17.7115 1.49671 17.7115C1.34016 17.7115 1.20181 17.6516 1.08166 17.5313L0.179918 16.6294C0.0597615 16.5092 6.14449e-05 16.3709 6.14449e-05 16.2148C6.14449e-05 16.0582 0.0601405 15.9199 0.179918 15.7997L8.58536 7.39479Z" fill="#1D1D1D"/>
</svg>
